# xmcd CD database file
#
# Track frame offsets:
#	150
#	12422
#	30357
#	54351
#	70636
#	83005
#	114693
#	135338
#	161598
#	192845
#	198055
#	215634
#
# Disc length: 3075 seconds
#
# Revision: 0
# Processed by: cddbd v1.5.1PL0 Copyright (c) Steve Scherf et al.
# Submitted via: CDex 1.51
#
DISCID=940c010c
DTITLE=Moments Notice - Moments Notice
DYEAR=2003
DGENRE=Jazz
TTITLE0=Falaffelen
TTITLE1=Ernie
TTITLE2=Nuncha
TTITLE3=Fikk
TTITLE4=Look Into My Eyes 1
TTITLE5=Færøysk Blues
TTITLE6=Salt 13
TTITLE7=Someone
TTITLE8=Bastoppen
TTITLE9=Look Into My Eyes 2
TTITLE10=Fried Bananas
TTITLE11=Sævven Sau
EXTD=YEAR: 2003
EXTT0=
EXTT1=
EXTT2=
EXTT3=
EXTT4=
EXTT5=
EXTT6=
EXTT7=
EXTT8=
EXTT9=
EXTT10=
EXTT11=
PLAYORDER=
